<?xml version="1.0" standalone="no"?>
<!DOCTYPE svg PUBLIC "-//W3C//DTD SVG 20010904//EN"
 "http://www.w3.org/TR/2001/REC-SVG-20010904/DTD/svg10.dtd">
<svg version="1.0" xmlns="http://www.w3.org/2000/svg"
 width="260.000000pt" height="260.000000pt" viewBox="0 0 260.000000 260.000000"
 preserveAspectRatio="xMidYMid meet">
<metadata>
Created by potrace 1.11, written by Peter Selinger 2001-2013
</metadata>
<g transform="translate(0.000000,260.000000) scale(0.100000,-0.100000)"
fill="#000000" stroke="none">
<path d="M1300 2446 c0 -2 8 -10 18 -17 15 -13 16 -12 3 4 -13 16 -21 21 -21
13z"/>
<path d="M1285 2410 c-3 -5 -12 -7 -19 -4 -14 5 -39 -19 -42 -43 -2 -11 1 -12
12 -2 7 6 12 15 9 19 -9 15 16 23 28 10 9 -10 9 -11 0 -6 -7 4 -13 3 -13 -3 0
-5 -8 -17 -17 -26 -15 -16 -18 -15 -35 7 l-19 23 14 -30 c15 -31 13 -55 -5
-55 -6 0 -5 6 2 16 11 12 11 15 -1 12 -8 -2 -13 3 -11 10 1 8 -2 11 -7 8 -5
-3 -8 -14 -7 -24 2 -9 -2 -20 -8 -24 -8 -5 -7 -8 2 -8 6 0 12 -5 12 -11 0 -5
-5 -7 -12 -3 -7 5 -8 3 -3 -6 6 -10 4 -12 -7 -7 -12 4 -14 1 -11 -14 4 -15 2
-18 -13 -13 -11 3 -4 -4 14 -16 35 -24 41 -33 15 -23 -10 4 -14 2 -10 -4 3 -5
0 -10 -8 -10 -12 0 -12 3 -2 16 10 14 10 14 -4 4 -9 -7 -19 -10 -22 -6 -4 3
-7 1 -7 -5 0 -6 9 -14 20 -17 11 -3 20 -10 20 -15 0 -5 -9 -12 -20 -15 -11 -4
-20 -15 -20 -26 0 -13 4 -18 12 -13 7 4 8 3 4 -4 -12 -19 -33 -2 -30 24 1 13
-1 22 -5 19 -10 -5 -8 -36 4 -54 6 -11 4 -13 -11 -7 -10 4 -15 4 -12 0 4 -3 1
-13 -7 -21 -8 -8 -15 -19 -15 -26 0 -6 7 -2 15 9 17 22 20 12 4 -17 -6 -11
-15 -17 -22 -12 -7 4 -7 0 2 -10 15 -19 36 -23 25 -5 -4 7 -3 8 5 4 13 -9 5
-27 -12 -25 -36 4 -47 -13 -22 -34 6 -5 3 -7 -7 -4 -9 4 -19 -1 -22 -10 -4
-11 -2 -14 9 -10 8 4 17 2 19 -2 10 -15 -5 -19 -37 -10 -26 7 -29 6 -16 -4 16
-12 23 -51 7 -41 -5 3 -6 9 -3 14 3 4 -1 10 -9 13 -8 3 -13 -1 -12 -11 0 -9
-5 -16 -12 -14 -6 1 -11 -1 -10 -5 1 -5 -4 -19 -11 -33 -10 -18 -5 -16 16 9
25 29 31 32 36 17 4 -9 3 -15 -2 -12 -9 6 -47 -44 -43 -57 1 -4 -5 -10 -13
-13 -12 -5 -11 -10 8 -26 l22 -19 -22 10 c-14 7 -24 8 -28 1 -3 -5 -3 -10 0
-10 4 0 -3 -15 -15 -34 -15 -25 -17 -36 -9 -42 8 -4 9 -3 5 4 -4 7 -2 12 4 12
6 0 9 4 5 9 -3 5 0 13 6 17 8 4 9 3 5 -4 -4 -7 -1 -12 6 -12 10 0 10 -2 -1 -9
-7 -5 -10 -14 -7 -20 5 -7 2 -10 -6 -9 -7 2 -12 -3 -10 -11 1 -7 -3 -19 -9
-27 -6 -8 -8 -14 -4 -14 4 0 2 -7 -5 -15 -6 -8 -8 -20 -4 -27 5 -8 -2 -6 -18
4 -21 14 -26 14 -24 3 1 -8 6 -18 11 -22 4 -4 5 -2 0 6 -5 9 -4 12 3 8 9 -6 9
-27 2 -47 -1 -3 -2 -9 -1 -13 1 -5 -4 -5 -10 -1 -8 5 -10 2 -6 -8 3 -9 -2 -23
-13 -33 -10 -9 -17 -25 -15 -36 3 -16 1 -17 -16 -6 -19 12 -19 13 8 34 15 13
23 23 16 23 -6 0 -13 6 -16 13 -2 6 -3 4 -2 -5 3 -20 -28 -51 -40 -41 -5 5 -3
0 4 -9 15 -20 7 -53 -10 -42 -7 4 -9 3 -5 -4 3 -6 2 -13 -4 -17 -6 -4 -8 -11
-4 -16 4 -6 11 -6 20 2 7 6 11 16 7 22 -3 6 -1 7 6 3 6 -4 10 -4 9 1 -2 4 0 9
5 11 16 5 19 1 9 -10 -6 -7 -11 -17 -11 -23 -1 -5 -5 -11 -11 -11 -5 -1 -13
-2 -16 -3 -4 0 0 -9 7 -18 12 -14 12 -16 0 -8 -11 6 -13 4 -8 -9 4 -10 3 -15
-3 -11 -6 3 -10 1 -10 -4 0 -6 -7 -11 -15 -11 -8 0 -15 -5 -15 -11 0 -5 6 -7
13 -3 9 6 9 4 0 -7 -16 -16 -17 -33 -1 -23 7 4 8 3 4 -5 -4 -6 -12 -9 -17 -5
-7 4 -9 -6 -6 -26 5 -25 3 -29 -8 -20 -8 6 -12 21 -10 32 3 11 1 17 -3 14 -4
-4 -7 -13 -7 -19 0 -7 -9 -12 -20 -11 -14 1 -21 -5 -21 -18 0 -15 3 -17 11 -6
15 20 30 19 43 -3 12 -18 11 -19 -6 -10 -16 8 -23 6 -38 -12 -13 -15 -14 -18
-3 -9 14 10 18 10 23 -3 3 -9 2 -13 -4 -10 -6 4 -8 -8 -5 -32 3 -27 2 -34 -5
-23 -9 14 -14 7 -11 -13 1 -5 -3 -6 -9 -2 -6 4 -4 16 7 33 9 15 13 24 8 20 -4
-5 -14 1 -22 12 -8 11 -18 20 -24 20 -5 0 0 -9 12 -21 23 -23 20 -46 -5 -41
-14 3 -14 0 4 -18 11 -11 18 -25 15 -30 -3 -4 1 -10 7 -13 7 -3 3 -4 -9 -4
-15 1 -19 5 -12 13 6 7 4 15 -5 23 -12 10 -17 8 -26 -11 -10 -21 -10 -21 3 -5
9 10 18 14 21 9 3 -5 -1 -15 -9 -22 -7 -6 -11 -18 -8 -26 4 -12 8 -12 22 -2
14 12 14 11 2 -4 -7 -10 -17 -15 -22 -12 -5 3 -9 -2 -9 -11 0 -9 4 -14 9 -10
5 3 13 0 17 -6 4 -8 3 -9 -4 -5 -6 3 -16 -2 -21 -13 -8 -14 -8 -21 2 -25 8 -4
7 -5 -3 -5 -31 2 -41 -1 -35 -11 4 -6 2 -16 -3 -23 -5 -7 -10 -20 -11 -29 -3
-39 -5 -45 -17 -45 -9 0 -9 6 2 23 11 16 12 24 4 29 -8 5 -5 12 7 22 16 13 16
13 -5 3 -17 -8 -20 -15 -13 -24 14 -16 -19 -65 -39 -58 -9 2 -7 -2 4 -11 19
-14 19 -15 -2 -28 -23 -14 -30 -39 -11 -39 5 0 8 4 4 9 -3 5 0 13 6 17 7 4 9
3 5 -4 -3 -6 -2 -14 4 -17 8 -5 8 -11 1 -19 -6 -7 -8 -16 -4 -20 4 -4 -1 -4
-10 0 -10 3 -17 3 -16 -2 3 -20 -2 -34 -12 -34 -6 0 -7 5 -2 13 12 19 14 47 4
47 -6 0 -8 -9 -6 -21 3 -15 0 -19 -10 -15 -12 4 -12 1 -3 -19 6 -13 15 -22 20
-18 6 3 2 -7 -8 -22 -12 -19 -24 -25 -40 -22 -17 3 -21 0 -16 -11 4 -11 2 -13
-9 -7 -12 8 -12 6 0 -8 7 -9 10 -17 5 -17 -5 0 2 -10 16 -21 l25 -20 -35 17
c-28 14 -33 14 -23 2 7 -8 10 -18 6 -22 -4 -4 -1 -5 7 -3 8 2 12 2 7 0 -4 -3
-5 -9 -2 -14 4 -5 -2 -6 -11 -2 -14 5 -16 2 -12 -20 4 -23 3 -25 -13 -17 -22
12 -37 -6 -20 -23 9 -9 10 -8 5 7 -7 18 -6 18 14 0 26 -22 27 -25 5 -17 -11 4
-14 3 -9 -6 5 -7 -5 -22 -23 -38 -17 -15 -31 -32 -31 -37 0 -5 6 -2 12 7 10
12 17 14 28 6 13 -9 13 -10 0 -7 -9 3 -22 -9 -33 -30 -16 -29 -16 -37 -5 -48
7 -8 25 -15 39 -16 26 -2 28 -6 31 -52 1 -14 5 -23 9 -21 4 3 5 18 4 35 -1 16
1 27 6 24 5 -3 7 -10 4 -15 -4 -5 -1 -9 5 -9 6 0 9 -4 6 -8 -4 -8 11 -8 59 -3
6 1 3 5 -5 10 -8 6 -18 7 -22 5 -4 -3 -8 0 -8 6 0 8 7 9 18 5 9 -4 22 -8 29
-8 16 0 -3 -37 -19 -37 -6 0 -8 -3 -5 -6 4 -4 14 -1 23 7 21 18 47 21 41 5 -3
-7 -1 -19 4 -27 8 -12 10 -12 8 1 -2 25 1 40 9 39 19 -3 33 2 27 10 -3 5 -1
12 4 15 5 4 13 1 16 -5 4 -5 13 -8 21 -5 7 3 18 -3 23 -12 10 -16 12 -15 15
10 0 6 9 12 19 14 9 1 15 -2 11 -7 -3 -5 0 -9 5 -9 6 0 11 6 11 13 0 8 4 7 10
-3 5 -8 10 -11 10 -6 0 5 7 3 15 -4 12 -10 13 -16 3 -29 -11 -14 -11 -14 3 -4
12 10 18 10 29 0 7 -6 6 -1 -3 13 -10 13 -17 29 -17 35 0 5 5 3 10 -5 8 -13
11 -13 19 -1 10 15 35 5 25 -10 -3 -5 -10 -7 -15 -4 -5 4 -9 1 -9 -4 0 -14 6
-14 33 1 12 6 35 11 50 10 16 -2 26 1 23 6 -3 5 1 9 9 9 12 0 12 -4 -2 -20
-17 -20 -17 -20 1 -14 14 6 17 4 12 -8 -3 -10 -2 -13 4 -10 6 4 9 14 8 23 -2
10 3 16 11 14 7 -1 19 2 25 7 9 8 13 6 13 -4 0 -8 -3 -13 -5 -10 -7 7 -32 -15
-32 -29 0 -6 5 -4 10 5 6 10 20 15 35 13 22 -2 24 0 14 12 -6 8 -9 17 -5 21 3
3 6 1 6 -5 0 -7 7 -12 16 -12 8 0 12 -4 9 -10 -9 -14 -16 -54 -8 -46 8 8 14
32 16 63 0 12 5 19 9 17 5 -3 6 -9 3 -13 -2 -5 3 -15 13 -23 35 -30 40 -29 37
7 -1 27 1 33 11 25 8 -8 13 -7 17 2 2 7 4 1 4 -14 0 -16 -3 -28 -8 -28 -5 0
-9 -4 -9 -8 0 -5 7 -9 14 -9 8 0 14 5 13 11 -1 6 6 10 15 8 9 -1 19 2 23 8 3
5 0 7 -8 4 -19 -7 -32 12 -16 22 8 5 9 3 4 -6 -5 -8 -3 -11 6 -8 8 3 13 11 11
17 -1 7 2 10 7 7 5 -3 8 -17 6 -31 -2 -20 0 -23 11 -14 8 6 11 16 7 23 -3 6
-3 8 2 4 4 -4 14 -3 22 4 10 8 17 8 25 0 8 -8 17 -8 31 -1 14 8 18 8 13 0 -5
-7 3 -11 19 -11 14 0 24 4 21 8 -2 4 4 9 15 9 10 1 19 -3 19 -8 0 -6 -4 -8 -9
-5 -5 3 -14 0 -20 -8 -9 -10 -7 -17 6 -27 16 -13 17 -12 4 4 -12 15 -11 17 7
17 16 0 20 -5 17 -21 -3 -17 -2 -19 10 -9 8 7 13 16 10 20 -3 4 6 7 20 6 18
-1 24 -5 20 -16 -4 -11 -1 -10 8 2 8 10 17 15 20 11 4 -3 2 -12 -4 -19 -7 -8
-6 -14 2 -20 7 -4 9 -3 6 3 -4 6 3 19 14 29 20 18 20 18 15 -9 -3 -16 -1 -25
5 -22 5 4 7 10 5 14 -3 4 -1 13 4 21 7 12 14 12 27 4 20 -12 43 -8 43 8 0 7
-5 6 -14 -1 -10 -9 -15 -8 -19 3 -4 10 -1 13 9 9 8 -3 14 1 14 8 1 9 4 8 11
-4 15 -26 32 -21 18 6 -8 16 -4 14 15 -8 14 -16 26 -25 26 -20 1 6 5 1 10 -10
7 -15 8 -10 5 18 -3 32 -1 36 10 27 8 -6 11 -19 8 -28 -6 -15 -5 -15 10 -3 9
7 14 18 10 25 -3 6 -2 7 3 3 15 -14 11 -31 -10 -44 -19 -10 -19 -11 6 -10 19
2 25 7 23 19 -3 12 2 18 16 18 11 0 17 4 14 10 -4 6 1 7 11 3 15 -5 15 -7 -2
-17 -11 -6 -20 -21 -20 -33 -1 -13 3 -20 7 -17 5 3 7 9 5 13 -3 4 -1 13 4 21
7 12 13 13 27 3 10 -6 17 -16 15 -23 -1 -6 2 -9 7 -5 6 3 2 21 -10 43 -12 20
-14 29 -6 19 15 -18 40 -19 67 -2 13 8 13 7 1 -8 -8 -11 -9 -17 -3 -17 6 0 10
-6 8 -12 -1 -7 -1 -9 2 -5 2 4 11 2 20 -5 15 -11 15 -11 5 3 -7 9 -9 20 -5 24
4 5 1 5 -5 1 -9 -5 -11 -2 -6 9 3 9 9 12 12 7 10 -15 43 -10 37 5 -4 8 -1 11
5 8 13 -9 6 -30 -9 -30 -7 0 -12 -3 -12 -7 0 -29 2 -31 11 -15 5 9 14 17 19
17 5 0 7 -8 4 -17 -5 -16 -4 -16 6 0 11 18 12 18 32 0 21 -18 21 -18 7 5 -8
12 -19 20 -25 18 -6 -2 -11 2 -11 9 0 9 6 11 16 6 9 -5 27 -7 39 -6 13 1 26
-4 29 -12 3 -7 9 -10 15 -7 5 3 4 13 -4 22 -12 16 -11 16 6 2 18 -14 19 -13
13 5 -7 19 -6 19 7 3 17 -23 27 -23 20 0 -5 14 -4 14 6 -2 9 -13 14 -15 20 -6
5 9 9 8 13 -3 4 -11 0 -15 -14 -12 -25 5 -24 -8 4 -31 12 -10 16 -12 10 -4
-17 18 -17 31 0 28 7 -2 12 6 11 19 0 12 4 19 9 16 5 -3 7 -16 4 -29 -3 -19
-2 -22 9 -13 8 6 11 16 7 23 -3 6 -3 8 2 4 4 -4 15 -3 22 4 9 7 17 8 21 2 9
-13 33 -12 30 1 -2 6 -7 9 -11 7 -5 -1 -5 2 -2 8 5 8 13 6 26 -6 13 -12 19
-13 19 -4 0 6 6 10 14 7 17 -7 41 18 32 32 -4 5 -2 13 4 16 8 5 7 12 -2 23
-10 12 -10 14 0 8 7 -4 12 -1 12 9 0 9 -4 14 -8 11 -4 -2 -14 -1 -21 3 -10 6
-9 10 3 14 9 4 21 -2 30 -15 l15 -21 -2 21 c0 11 -4 19 -8 16 -17 -10 -19 31
-2 44 17 13 17 13 -1 10 -10 -2 -21 3 -23 10 -3 8 2 10 14 6 14 -5 15 -4 4 4
-18 13 -43 4 -34 -12 11 -17 14 -46 4 -46 -5 0 -8 10 -7 23 1 14 -4 21 -13 19
-12 -3 -12 0 -1 13 11 13 10 18 -4 33 -17 20 -12 32 12 32 11 0 12 -3 3 -14
-16 -19 3 -31 26 -16 15 9 14 10 -6 4 -18 -5 -22 -3 -15 7 13 21 13 38 2 46
-7 4 -8 1 -3 -7 6 -10 4 -12 -8 -7 -9 3 -18 1 -20 -6 -2 -7 -8 -8 -13 -4 -5 5
1 17 15 28 25 20 21 25 -8 10 -25 -14 -47 2 -26 19 13 11 14 10 8 -6 -6 -18
-6 -18 10 -2 9 9 17 18 17 21 0 8 -36 4 -49 -7 -11 -8 -13 -8 -7 2 4 7 1 12
-8 12 -9 0 -16 5 -16 10 0 7 6 7 20 0 11 -6 20 -7 20 -1 0 5 -7 12 -16 15 -9
4 -14 9 -11 12 3 4 -1 13 -9 21 -8 8 -12 19 -8 24 3 6 0 16 -6 25 -10 12 -16
12 -29 2 -14 -12 -14 -11 -2 4 12 16 16 16 45 2 19 -9 25 -10 15 -2 -9 7 -14
20 -12 28 4 12 3 12 -5 1 -8 -10 -14 -11 -28 -1 -17 10 -17 11 -1 6 10 -3 16
-2 12 3 -3 5 1 12 7 14 10 4 10 6 1 6 -7 1 -10 8 -7 18 4 11 3 14 -3 7 -9 -13
-49 -12 -60 1 -5 4 -2 5 5 1 7 -4 12 -1 12 8 0 8 -6 17 -12 19 -10 4 -10 6 0
6 7 1 15 -6 18 -14 8 -19 21 -19 21 -1 0 8 -3 14 -6 13 -3 -1 -17 5 -31 13
-14 7 -26 11 -27 9 -1 -2 -5 0 -10 5 -4 5 -3 6 4 2 19 -10 41 38 23 49 -5 3
-7 12 -3 20 4 11 -1 14 -17 13 -14 -2 -28 6 -37 19 -9 13 -11 23 -5 23 6 0 14
-9 17 -20 3 -11 11 -20 17 -20 6 0 6 6 -2 15 -7 8 -10 21 -7 28 4 10 -2 13
-17 12 -13 -2 -23 2 -24 9 0 6 -3 20 -6 31 -2 11 -5 22 -5 25 -1 3 -5 -1 -10
-9 -6 -9 -11 -10 -15 -2 -4 6 -2 11 4 11 7 0 10 7 7 15 -4 8 -1 17 5 21 6 4 8
3 5 -3 -4 -6 0 -19 9 -29 14 -18 15 -18 4 4 -6 13 -7 22 -1 22 5 0 11 -5 13
-12 3 -7 7 -5 11 6 4 10 3 15 -3 11 -5 -3 -21 5 -35 19 -30 31 -46 35 -20 6
10 -11 13 -20 7 -20 -7 0 -12 5 -12 11 0 5 -4 8 -9 5 -5 -4 -8 2 -6 11 2 10 4
22 4 26 1 4 11 2 24 -4 l22 -11 -22 21 c-22 21 -39 28 -29 12 3 -5 -1 -14 -8
-20 -10 -9 -16 -9 -21 -1 -4 6 -3 10 2 9 20 -3 27 2 13 11 -13 8 -13 11 -1 22
11 11 13 11 6 -1 -6 -10 -4 -12 4 -7 12 8 9 21 -3 14 -3 -2 -13 7 -21 20 -10
13 -21 19 -28 15 -8 -4 -7 -1 1 9 9 11 9 18 2 21 -6 3 -5 4 2 3 7 -2 12 -8 11
-13 -3 -16 32 -32 48 -22 11 8 10 9 -5 7 -10 -2 -21 3 -24 11 -3 8 0 11 7 7 6
-4 11 -2 11 4 0 6 5 8 12 4 7 -4 8 -3 4 4 -5 9 -13 9 -27 2 -10 -6 -19 -9 -20
-8 0 2 -2 11 -4 21 -2 11 -6 22 -10 25 -10 10 -35 11 -35 1 0 -5 -5 -9 -12 -9
-9 0 -9 3 0 12 14 14 16 64 3 73 -6 3 -8 -4 -6 -15 2 -11 0 -18 -6 -15 -5 4
-7 11 -4 16 4 5 1 9 -5 9 -6 0 -10 8 -8 18 2 11 -2 16 -12 14 -12 -3 -12 -1
-3 9 14 14 -4 62 -20 52 -6 -3 -7 -1 -3 5 3 6 -2 16 -11 22 -13 8 -14 10 -2 7
9 -3 21 4 29 16 12 20 12 21 -3 8 -20 -16 -23 -1 -4 18 10 11 10 13 0 7 -7 -4
-13 -3 -13 1 0 5 6 15 13 22 6 7 8 12 2 11 -22 -5 -29 1 -15 11 13 10 13 10 0
6 -52 -16 -64 -18 -51 -9 11 8 11 11 0 16 -8 3 -3 4 11 1 14 -3 19 -2 13 1 -7
3 -13 14 -13 25 0 10 -5 19 -11 19 -5 0 -7 4 -4 10 3 6 -1 7 -10 4 -11 -5 -14
-2 -9 10 3 9 11 13 18 9 6 -4 5 1 -3 10 -15 19 -26 23 -15 6 3 -6 -6 -3 -20 7
-15 9 -23 20 -19 23 5 3 8 13 8 21 0 8 6 21 15 28 8 8 10 11 3 7 -14 -7 -32
24 -26 45 4 13 3 13 -6 0 -6 -8 -11 -11 -11 -6 0 5 -8 2 -17 -5 -9 -8 -14 -9
-10 -2 4 6 1 14 -5 16 -10 4 -10 6 -1 6 7 1 10 8 7 19 -5 14 -4 14 4 2 6 -8 8
-19 4 -25 -3 -5 2 -4 12 4 9 8 14 21 11 29 -3 8 -2 20 2 26 5 7 1 4 -8 -6 -20
-21 -34 -12 -16 10 9 13 9 14 0 8 -12 -7 -18 5 -14 27 1 5 -3 6 -9 2 -6 -3 -8
-11 -5 -16 10 -15 14 -49 7 -49 -4 0 -13 9 -20 21 -10 15 -10 19 -1 14 7 -5
10 -3 7 6 -8 23 11 52 26 40 9 -8 13 -7 13 4 0 8 -4 12 -9 9 -4 -3 -8 1 -8 8
0 10 -2 10 -8 1 -9 -14 -26 -5 -30 16 -2 8 3 11 12 8 9 -4 18 -2 20 2 3 5 -4
8 -16 7 -25 -1 -33 -32 -11 -44 12 -7 12 -10 -2 -22 -8 -7 -18 -10 -22 -6 -3
3 -1 6 5 6 7 0 12 5 12 11 0 5 -4 8 -8 5 -4 -2 -8 5 -9 17 0 35 -7 51 -26 65
-9 7 -14 18 -11 24 5 8 1 9 -11 4 -15 -5 -16 -4 -5 9 12 14 7 20 -14 16 -5 -1
-4 5 3 13 7 8 18 14 24 12 7 -1 9 -1 5 1 -5 3 -8 9 -8 14 0 6 5 7 10 4 6 -3
10 -1 10 4 0 17 -11 13 -38 -11 -14 -13 -22 -18 -19 -11 4 6 4 13 0 16 -5 2
-2 2 5 0 9 -2 11 4 7 20 -5 17 -4 19 4 7 7 -9 11 -10 11 -3 0 6 -5 15 -10 18
-7 5 -8 11 -1 19 7 8 3 12 -15 14 -15 1 -23 -2 -19 -8 4 -6 10 -8 14 -6 4 3 8
-1 8 -8 0 -8 -6 -12 -14 -9 -7 3 -13 9 -13 15 0 5 -4 7 -8 4 -4 -2 -8 6 -8 19
0 13 4 21 8 19 13 -8 9 6 -6 21 -7 8 -17 11 -21 7 -5 -4 -5 -2 -2 5 4 6 2 13
-5 15 -8 3 -6 7 5 11 9 3 19 1 23 -5 4 -7 3 -8 -4 -4 -7 4 -12 5 -12 2 0 -3 9
-10 21 -16 18 -10 19 -10 10 8 -6 11 -7 23 -3 27 4 5 1 5 -7 0 -10 -6 -12 -2
-7 13 4 11 2 23 -3 27 -7 4 -8 -1 -4 -12 6 -16 5 -16 -10 -4 -14 11 -15 17 -5
30 12 14 11 14 -4 2 -20 -15 -25 -2 -6 17 8 8 8 12 1 12 -19 0 -24 -32 -8 -50
8 -9 12 -20 8 -25 -5 -4 -2 -5 6 0 9 5 12 4 7 -3 -11 -18 -29 -14 -22 3 3 9
-1 18 -9 21 -18 7 -20 45 -2 64 9 11 8 11 -7 0 -17 -14 -18 -13 -12 7 5 17 2
24 -16 33 -21 10 -21 10 -5 -3 22 -19 22 -22 -6 -23 -14 -1 -29 7 -37 20 l-13
21 24 -20 24 -20 -19 23 c-22 25 -23 25 -31 12z m75 -75 c0 -5 -5 -3 -10 5 -5
8 -10 20 -10 25 0 6 5 3 10 -5 5 -8 10 -19 10 -25z m-163 -66 c-6 -10 -16 -19
-20 -19 -5 0 -7 -6 -4 -13 3 -8 -1 -14 -9 -14 -14 0 -10 11 14 39 7 9 11 21 7
27 -3 7 0 8 9 5 12 -5 13 -9 3 -25z m-93 -215 c3 -8 2 -12 -4 -9 -6 3 -10 10
-10 16 0 14 7 11 14 -7z m-119 -234 c-3 -5 -1 -10 4 -10 6 0 11 -5 11 -11 0
-8 -6 -7 -17 2 -15 12 -16 12 -10 -3 4 -12 2 -15 -9 -11 -13 5 -13 8 2 24 18
20 29 25 19 9z m-16 -63 c0 -9 -2 -8 -6 1 -2 6 -10 9 -15 6 -7 -4 -8 -2 -4 5
9 13 26 5 25 -12z m685 -3 c9 -23 8 -24 -11 -24 -15 0 -16 2 -3 10 14 9 7 14
-13 11 -5 -1 -6 3 -2 9 9 15 22 12 29 -6z m-714 -33 c7 -14 7 -22 -2 -27 -7
-4 -8 -3 -4 4 4 7 3 12 -2 12 -5 0 -9 7 -9 15 0 20 4 19 17 -4z m383 -221 c-3
-3 -8 1 -10 8 -3 6 -9 10 -14 7 -5 -4 -6 1 -3 10 6 14 8 14 19 -2 8 -10 11
-20 8 -23z m437 15 c-8 -9 -8 -15 0 -18 6 -3 5 -4 -2 -2 -7 1 -12 8 -10 15 2
8 -4 10 -15 6 -16 -5 -16 -5 1 9 22 17 42 9 26 -10z m-452 -35 c3 -7 9 -7 20
2 15 12 16 11 3 -4 -7 -10 -17 -15 -22 -12 -10 6 -12 -9 -2 -19 3 -4 14 0 24
9 11 10 19 12 24 4 3 -6 1 -9 -5 -8 -17 4 -21 -29 -5 -36 9 -3 12 -16 9 -35
-3 -17 -2 -31 3 -31 5 0 14 -10 22 -22 13 -20 12 -22 -1 -11 -8 7 -18 10 -21
6 -8 -8 34 -39 48 -35 6 1 2 -4 -8 -12 -10 -8 -18 -17 -18 -20 3 -21 0 -26
-10 -20 -8 4 -8 0 0 -15 7 -11 14 -21 17 -21 3 0 3 4 -1 9 -3 5 -1 12 4 16 6
3 8 -3 6 -15 -2 -11 3 -24 13 -30 11 -6 12 -10 4 -10 -7 0 -10 -4 -7 -10 3 -5
1 -10 -5 -10 -6 0 -10 6 -8 14 2 8 -1 16 -7 17 -5 1 -16 9 -23 18 -10 13 -12
14 -10 1 2 -8 -3 -14 -10 -12 -8 1 -11 -2 -7 -7 3 -6 12 -8 20 -5 20 8 37 -29
22 -46 -10 -12 -9 -12 5 -1 9 7 22 10 28 6 5 -3 10 -1 10 6 0 7 2 10 5 8 2 -3
-2 -22 -9 -42 -13 -38 -13 -38 -27 -16 -14 21 -15 21 -15 1 0 -11 5 -20 11
-19 5 1 9 -5 7 -13 -3 -12 -1 -13 9 -2 17 16 34 16 20 -1 -6 -8 -8 -17 -4 -20
7 -7 -12 -11 -37 -7 -26 3 -4 -11 25 -16 14 -2 24 -1 21 4 -2 4 -1 14 4 22 8
12 11 13 22 2 7 -8 9 -13 3 -12 -22 5 -27 -1 -14 -17 10 -11 10 -14 2 -9 -7 4
-13 3 -13 -3 0 -6 -6 -8 -14 -5 -8 3 -17 1 -21 -5 -3 -6 0 -9 7 -6 15 5 55
-22 45 -31 -4 -4 -13 -1 -21 5 -11 9 -16 9 -22 0 -4 -7 -3 -9 4 -5 16 10 25
-13 11 -30 -10 -12 -10 -15 2 -12 9 2 14 -6 13 -24 0 -34 2 -34 17 -7 9 17 8
20 -3 14 -10 -6 -11 -5 0 6 6 7 12 18 12 23 0 6 -4 5 -9 -3 -5 -7 -11 -9 -14
-4 -3 5 3 14 13 20 17 11 18 9 15 -30 -2 -25 -11 -46 -21 -54 -10 -7 -14 -13
-10 -13 5 0 2 -8 -5 -17 -12 -16 -12 -17 2 -6 21 17 33 5 16 -16 -11 -14 -10
-14 5 -2 10 7 15 18 11 25 -4 6 2 4 13 -4 29 -22 30 -24 12 -17 -18 6 -22 -1
-19 -35 2 -16 -10 -23 -32 -19 -5 1 -6 -3 -2 -9 3 -6 11 -7 17 -4 17 11 59 13
53 4 -3 -5 -1 -11 5 -15 5 -3 10 -11 10 -17 0 -5 -8 0 -18 12 -17 21 -18 21
-32 4 -14 -17 -14 -18 3 -5 15 12 17 11 17 -7 0 -16 -5 -20 -17 -16 -14 5 -15
4 -4 -4 8 -6 10 -15 6 -22 -5 -8 -4 -11 2 -7 6 4 16 -7 23 -23 7 -16 17 -27
23 -23 6 3 7 1 3 -6 -4 -6 -11 -9 -16 -6 -19 12 -19 -15 0 -28 20 -14 17 -32
-4 -20 -17 11 -36 12 -36 2 0 -6 8 -9 18 -7 10 2 17 -3 17 -12 0 -8 -6 -14
-13 -12 -8 1 -11 -2 -7 -8 3 -6 11 -8 16 -4 6 3 9 -2 7 -11 -2 -10 4 -20 12
-22 13 -4 13 -3 0 6 -12 8 -12 11 -1 11 11 0 11 3 1 15 -9 11 -9 15 -1 15 7 0
9 5 5 13 -5 8 -2 8 9 -2 18 -14 24 -26 8 -17 -5 3 -8 -8 -7 -24 0 -17 5 -30
10 -30 17 0 -7 -17 -34 -24 l-25 -7 25 15 c17 11 20 15 9 16 -20 0 -42 -24
-31 -35 4 -5 -1 -5 -11 -2 -10 4 -16 3 -12 -2 3 -5 1 -12 -5 -16 -5 -3 -10 -2
-10 4 0 5 -9 9 -20 8 -11 -1 -20 -4 -20 -8 0 -7 -24 -5 -68 5 -13 3 -20 1 -17
-5 4 -5 11 -7 16 -4 16 10 9 -9 -12 -35 -17 -21 -18 -21 -10 -4 8 17 7 25 -5
35 -12 10 -18 9 -32 -6 -10 -11 -11 -15 -3 -10 9 5 12 4 8 -2 -4 -6 -27 -9
-52 -8 -25 2 -43 -1 -40 -5 6 -9 -8 -8 -43 4 -12 4 -19 12 -16 18 4 6 9 5 15
-3 4 -7 12 -10 16 -5 4 5 2 11 -5 13 -10 4 -8 11 8 28 14 15 18 25 11 30 -7 3
-11 3 -10 -2 4 -22 -2 -25 -17 -7 -15 18 -15 18 -5 -2 11 -23 -2 -44 -26 -44
-10 0 -11 -5 -4 -18 7 -14 6 -19 -3 -19 -8 0 -12 10 -10 28 2 16 -1 31 -6 34
-7 4 -6 14 1 27 9 16 7 23 -10 35 -12 8 -21 19 -21 25 0 6 9 3 20 -7 18 -17
20 -17 14 -2 -3 9 -10 17 -15 17 -11 0 -7 23 6 32 6 4 2 8 -9 8 -12 0 -16 -5
-13 -15 4 -8 2 -17 -4 -21 -5 -3 -7 -14 -4 -25 10 -29 -2 -23 -19 11 -8 17
-11 28 -6 25 15 -9 23 17 9 27 -11 8 -10 8 4 4 13 -4 20 0 24 14 3 11 10 17
16 13 6 -4 7 -1 2 7 -6 10 -11 9 -21 -5 -8 -10 -16 -16 -20 -13 -3 4 8 16 25
29 17 12 28 26 25 31 -3 4 2 11 10 14 9 3 16 10 16 15 0 5 -9 4 -20 -3 -11 -7
-18 -18 -16 -24 3 -8 -3 -10 -17 -6 -12 3 -16 7 -9 10 10 3 10 7 0 20 -11 15
-11 15 3 4 13 -10 19 -9 30 5 12 15 12 16 -3 10 -10 -3 -20 -1 -24 5 -5 7 -2
8 6 3 9 -5 10 -2 6 13 -4 11 -2 23 4 27 6 3 8 10 6 14 -3 4 4 18 16 30 14 16
23 20 31 12 6 -6 15 -11 21 -11 5 0 1 7 -10 15 -18 14 -18 15 10 11 16 -3 25
-2 21 2 -3 4 -11 8 -16 8 -5 1 -14 2 -19 3 -6 0 -9 6 -8 13 2 6 -8 17 -22 25
-14 7 -19 13 -12 13 7 0 23 -5 34 -11 12 -7 18 -7 14 -1 -3 6 -3 12 1 15 5 2
2 2 -5 1 -7 -2 -15 3 -18 11 -4 8 -11 12 -18 8 -6 -3 -7 -2 -3 2 10 11 39 16
32 6 -2 -4 2 -8 10 -8 8 0 11 5 8 10 -4 6 0 8 9 5 8 -4 15 -1 15 6 0 6 -8 12
-18 12 -10 0 -15 -4 -13 -8 3 -4 -3 -5 -13 -1 -14 6 -12 9 15 20 18 7 32 19
32 26 0 9 -3 8 -9 -2 -5 -7 -14 -10 -20 -7 -6 4 -11 2 -11 -3 0 -6 -5 -11 -12
-11 -6 0 -8 3 -5 7 4 3 1 13 -6 21 -10 13 -9 14 3 7 27 -17 41 -15 35 5 -13
40 -13 60 -2 60 7 0 6 4 -3 10 -12 7 -12 10 -1 10 8 0 11 6 7 16 -6 15 -4 15
21 0 26 -16 26 -16 -4 13 -23 22 -28 31 -17 35 8 3 11 13 8 23 -5 15 -4 16 5
3 6 -8 11 -12 11 -8 0 3 3 14 6 22 5 12 2 15 -12 10 -16 -5 -16 -4 -4 5 8 6
11 11 6 11 -6 0 0 9 12 20 21 20 20 56 -2 43 -6 -3 -7 -2 -3 2 11 13 38 15 31
3 -4 -5 4 -4 17 2 32 17 32 17 14 24 -9 3 -13 2 -10 -4 3 -6 1 -10 -4 -10 -6
0 -11 5 -11 11 0 5 -4 8 -8 5 -4 -2 -9 4 -9 15 -1 10 3 19 8 19 6 0 7 -4 4
-10 -3 -5 -1 -10 4 -10 17 0 13 18 -6 30 -17 11 -17 11 1 6 14 -5 17 -2 12 9
-4 10 -2 14 5 9 7 -4 10 -1 7 7 -3 8 -10 13 -15 12 -5 -1 -10 4 -10 12 0 8 4
12 8 10 3 -3 12 2 19 10 7 8 16 12 21 9 5 -3 6 2 3 10 -3 9 -11 13 -18 9 -15
-10 -40 -13 -31 -5 4 4 12 7 18 7 7 1 11 6 10 13 -2 7 2 12 7 12 6 0 10 -4 10
-10 0 -5 5 -10 11 -10 5 0 7 5 4 10 -3 6 -1 10 5 10 6 0 9 4 5 10 -3 5 -12 7
-19 4 -8 -3 -17 -1 -20 4 -3 5 7 8 22 6 14 -1 28 -8 30 -14z m476 -86 c3 -8 2
-12 -4 -9 -6 3 -10 10 -10 16 0 14 7 11 14 -7z m-810 -132 c3 -5 -1 -9 -9 -9
-8 0 -12 4 -9 9 3 4 7 8 9 8 2 0 6 -4 9 -8z m671 -2 c3 -5 1 -10 -4 -10 -6 0
-11 5 -11 10 0 6 2 10 4 10 3 0 8 -4 11 -10z m-722 -28 c15 -16 15 -19 2 -19
-8 0 -13 3 -10 5 3 3 0 11 -6 19 -17 20 -5 16 14 -5z m962 9 c3 -6 -3 -9 -14
-8 -11 0 -17 5 -15 9 7 11 22 10 29 -1z m-195 -15 c0 -2 -7 -7 -16 -10 -8 -3
-12 -2 -9 4 6 10 25 14 25 6z m-5 -36 c-3 -5 -12 -10 -18 -10 -7 0 -6 4 3 10
19 12 23 12 15 0z m-15 -32 c0 -4 -4 -8 -9 -8 -6 0 -12 4 -15 8 -3 5 1 9 9 9
8 0 15 -4 15 -9z m-742 -23 c-3 -3 -9 2 -12 12 -6 14 -5 15 5 6 7 -7 10 -15 7
-18z m-18 -10 c0 -7 -7 -15 -15 -19 -8 -3 -15 -11 -15 -18 0 -9 3 -9 12 0 7 7
19 12 27 11 12 0 11 -3 -3 -8 -21 -8 -31 -67 -14 -87 5 -8 3 -14 -7 -18 -12
-4 -13 -11 -7 -23 5 -10 7 -24 4 -32 -3 -8 0 -11 6 -7 6 3 13 2 16 -3 7 -11
-13 -9 -33 3 -9 6 -10 11 -2 15 6 4 3 11 -9 19 -13 8 -20 9 -20 1 0 -5 -5 -7
-11 -3 -8 4 -7 9 2 16 11 8 11 9 -1 5 -8 -2 -14 -10 -12 -16 3 -15 -10 -14
-33 2 -17 13 -16 14 6 13 14 -1 23 4 22 11 -2 7 3 10 11 7 10 -4 14 0 12 12
-2 10 -9 20 -16 22 -8 3 -10 0 -5 -8 5 -9 4 -11 -4 -6 -16 10 -2 29 16 22 9
-4 13 -1 11 6 -3 7 -10 13 -15 13 -6 0 -14 3 -18 7 -4 3 0 5 9 4 8 -1 19 -5
22 -9 15 -15 26 -6 13 11 -11 14 -10 13 9 -2 12 -11 22 -14 22 -8 0 6 -4 13
-9 17 -12 7 -11 46 2 62 11 15 27 8 27 -12z m735 5 c10 -11 16 -20 13 -20 -3
0 -13 9 -23 20 -10 11 -16 20 -13 20 3 0 13 -9 23 -20z m45 10 c0 -5 -8 -10
-17 -10 -15 0 -16 2 -3 10 19 12 20 12 20 0z m-740 -20 c0 -5 -5 -10 -11 -10
-5 0 -7 5 -4 10 3 6 8 10 11 10 2 0 4 -4 4 -10z m737 -20 c-1 -11 -5 -20 -9
-20 -3 0 -6 9 -5 20 1 11 5 20 9 20 3 0 6 -9 5 -20z m39 -13 c5 -1 10 -9 11
-17 1 -8 10 -20 19 -27 17 -12 17 -13 0 -13 -14 0 -16 -3 -7 -13 6 -8 7 -18 3
-22 -4 -5 1 -5 10 -2 13 5 15 2 11 -11 -6 -15 -5 -15 11 -3 13 11 19 12 29 2
9 -10 8 -11 -7 -5 -15 6 -17 4 -11 -6 5 -9 4 -11 -3 -6 -15 9 -15 1 -1 -26 8
-15 8 -19 0 -14 -6 4 -11 2 -11 -4 0 -6 -5 -8 -11 -4 -7 4 -7 10 -1 16 6 6 8
17 5 25 -5 12 -7 12 -15 1 -8 -10 -9 -10 -5 3 3 10 -2 15 -18 15 -13 0 -21 -4
-18 -10 3 -5 1 -6 -5 -2 -7 4 -12 2 -12 -3 0 -6 5 -11 10 -11 6 0 9 -3 9 -7
-1 -5 0 -10 1 -13 5 -13 6 -60 1 -60 -13 0 -31 39 -21 45 7 4 6 13 -1 26 -7
15 -7 24 2 35 14 17 6 18 -24 3 -20 -9 -20 -9 -5 4 14 11 15 16 5 27 -9 10 -9
11 1 6 6 -4 12 -5 12 -2 0 2 3 12 7 21 5 15 3 16 -18 6 -23 -11 -23 -11 -5 3
11 9 16 16 10 16 -5 0 -1 5 8 11 10 5 15 17 12 27 -5 13 -4 14 4 4 5 -8 13
-14 18 -15z m44 -22 c14 -19 14 -19 -2 -6 -10 7 -18 18 -18 24 0 6 1 8 3 6 1
-2 9 -13 17 -24z m-100 1 c0 -3 -4 -8 -10 -11 -5 -3 -10 -1 -10 4 0 6 5 11 10
11 6 0 10 -2 10 -4z m-740 -10 c0 -3 -4 -8 -10 -11 -5 -3 -10 -1 -10 4 0 6 5
11 10 11 6 0 10 -2 10 -4z m1015 -15 c3 -5 2 -12 -3 -15 -5 -3 -9 1 -9 9 0 17
3 19 12 6z m-155 -21 c0 -5 -5 -10 -11 -10 -5 0 -7 5 -4 10 3 6 8 10 11 10 2
0 4 -4 4 -10z m-983 -27 c0 -9 -4 -10 -14 -2 -7 6 -13 12 -13 14 0 1 6 2 13 2
8 0 14 -6 14 -14z m956 -46 c7 4 6 -1 -2 -11 -12 -15 -12 -19 -1 -26 15 -9 40
-2 53 14 6 7 7 4 3 -6 -3 -11 3 -23 17 -33 12 -8 17 -15 12 -15 -6 0 -15 -11
-22 -25 -6 -14 -7 -23 -2 -19 5 3 9 0 9 -5 0 -6 4 -11 8 -11 5 0 9 7 9 15 0 8
-5 11 -10 8 -6 -3 -7 -1 -3 5 10 17 29 15 23 -3 -4 -8 -2 -17 3 -20 6 -4 10
-1 10 5 0 6 5 8 11 4 8 -4 7 -9 -2 -14 -10 -7 -10 -11 0 -24 7 -9 17 -14 21
-11 5 3 3 -8 -3 -24 -9 -25 -14 -28 -27 -18 -8 6 -2 -3 13 -20 33 -35 34 -42
15 -55 -9 -6 -6 -7 9 -3 12 3 24 1 28 -5 3 -6 10 -8 14 -6 4 3 8 -1 8 -9 0
-10 -5 -11 -18 -4 -28 15 -36 10 -11 -7 12 -8 22 -21 21 -27 -3 -27 2 -36 16
-31 11 5 13 2 9 -10 -3 -9 -10 -13 -15 -10 -5 3 -9 0 -9 -5 0 -15 13 -14 29 2
12 10 13 8 6 -8 -4 -11 -8 -26 -8 -32 0 -7 -5 -13 -11 -13 -6 0 -5 -4 2 -9 8
-4 14 -12 14 -16 0 -12 -25 -24 -35 -18 -5 3 -3 9 4 14 10 6 7 8 -8 6 -21 -1
-21 -2 -6 -19 9 -10 22 -17 29 -14 6 2 18 -1 25 -7 10 -10 11 -9 3 3 -14 20
-11 70 4 95 8 12 12 14 10 5 -1 -8 3 -26 10 -40 12 -22 12 -23 -1 -7 -9 11
-18 14 -21 8 -4 -5 3 -16 14 -24 18 -13 19 -15 5 -21 -9 -3 -13 -10 -10 -16 7
-12 -23 -46 -32 -36 -3 3 -12 -2 -19 -12 -12 -15 -12 -14 -8 8 5 22 4 23 -8 9
-13 -16 -38 -15 -38 2 0 4 8 6 18 3 13 -5 14 -4 3 4 -9 7 -10 12 -2 16 6 4 11
2 11 -5 0 -7 3 -9 6 -6 4 3 15 2 25 -4 34 -18 20 -2 -17 20 -19 12 -32 16 -28
9 5 -7 2 -9 -9 -5 -11 4 -14 2 -11 -7 4 -10 -5 -13 -33 -10 -33 2 -36 1 -20
-11 17 -12 17 -13 0 -19 -10 -4 -14 -4 -10 0 4 4 2 13 -4 21 -6 7 -8 13 -3 13
5 0 3 4 -4 9 -11 7 -10 9 3 14 9 4 14 3 11 -2 -3 -5 1 -11 9 -15 8 -3 17 0 21
6 4 7 3 8 -4 4 -11 -7 -16 5 -13 30 1 6 -7 17 -16 25 -10 7 -15 9 -11 5 4 -5
2 -16 -5 -25 -11 -14 -10 -14 6 -2 10 8 17 9 17 3 0 -17 -20 -25 -34 -13 -7 6
-17 7 -21 3 -5 -4 -5 -1 -1 6 4 7 12 10 17 7 5 -4 9 -2 9 4 0 5 -8 12 -18 16
-11 3 -24 18 -31 33 l-12 27 19 -24 c11 -13 21 -20 24 -15 3 5 3 3 2 -3 -2 -7
1 -13 6 -13 6 0 10 4 10 9 0 5 3 18 6 28 3 10 2 14 -3 8 -11 -14 -33 -17 -33
-5 0 6 10 15 23 20 13 5 16 9 7 9 -9 1 -21 -4 -28 -11 -8 -8 -12 -9 -12 -1 0
6 -6 13 -12 16 -7 2 -5 3 4 2 10 -2 23 4 30 13 11 13 11 14 0 8 -8 -5 -21 -1
-32 9 -20 18 -18 35 3 35 8 0 8 -3 -1 -9 -10 -6 -9 -11 4 -22 13 -10 16 -10
10 -1 -4 7 -2 20 6 29 8 11 8 14 1 10 -7 -5 -12 0 -12 13 -1 11 -1 29 -2 40 0
11 -5 20 -11 20 -6 0 -8 3 -4 8 4 4 13 7 19 7 19 0 16 45 -3 55 -10 5 -20 6
-24 3 -3 -3 -6 -2 -6 4 0 6 7 13 15 17 8 3 15 11 14 18 0 9 -2 10 -5 1 -3 -7
-12 -9 -21 -6 -9 4 -14 2 -10 -3 10 -17 -7 -34 -23 -24 -13 8 -12 10 3 10 10
0 15 5 12 11 -4 6 -14 8 -22 4 -14 -5 -14 -3 -2 12 8 10 20 22 27 26 7 5 10
12 7 18 -7 11 -3 11 19 3 9 -3 16 -11 16 -17 0 -6 -3 -7 -6 -4 -10 9 -44 -12
-43 -26 0 -9 2 -9 6 1 2 6 9 10 14 6 5 -3 9 0 9 5 0 6 3 10 8 9 4 -2 19 8 32
21 20 19 21 21 5 13 -15 -7 -27 -6 -45 4 -14 7 -21 13 -16 14 5 0 4 6 -1 13
-8 11 -9 20 -4 45 1 4 6 -1 12 -11 6 -10 15 -14 22 -10z m-899 -9 c-3 -4 4
-16 16 -28 18 -18 14 -25 -12 -21 -5 0 -8 -6 -8 -15 0 -8 -5 -12 -10 -9 -6 4
-5 -4 1 -19 11 -24 29 -27 29 -5 0 6 -4 7 -10 4 -15 -9 -12 2 6 19 8 9 21 16
27 16 7 0 6 -4 -3 -10 -8 -5 -14 -20 -15 -33 0 -13 -6 -31 -14 -40 -12 -15
-11 -17 5 -18 18 0 18 -1 -1 -8 -19 -8 -19 -8 0 -19 18 -11 18 -12 -6 -6 -17
3 -30 0 -38 -10 -15 -18 -36 -22 -25 -4 4 7 3 8 -5 4 -6 -4 -9 -11 -6 -16 3
-4 2 -10 -2 -13 -5 -2 -1 -2 7 0 29 8 33 8 37 -5 3 -6 -1 -10 -9 -9 -7 2 -10
2 -5 0 4 -3 7 -9 7 -14 0 -6 -5 -7 -12 -3 -7 5 -8 3 -3 -6 6 -10 4 -12 -8 -7
-9 3 -19 2 -22 -4 -4 -5 -3 -9 2 -8 19 3 34 -2 28 -10 -3 -5 -1 -12 4 -16 6
-3 8 3 6 14 -3 15 1 18 18 13 15 -4 17 -7 6 -11 -7 -3 -15 -19 -16 -34 -1 -18
2 -25 9 -21 7 4 8 3 4 -5 -4 -6 -12 -8 -18 -5 -8 5 -9 1 -5 -10 5 -14 3 -16
-12 -11 -22 7 -38 -12 -23 -27 6 -6 12 -6 17 3 5 8 4 10 -3 5 -7 -4 -12 -2
-12 4 0 7 5 10 12 8 6 -2 12 -20 13 -40 0 -20 -2 -35 -6 -32 -4 2 -12 -3 -19
-11 -13 -15 -30 -12 -30 6 0 6 5 7 10 4 19 -12 31 5 19 26 -6 12 -13 18 -16
15 -3 -3 0 -13 7 -21 12 -14 10 -15 -14 -11 -27 5 -27 5 -12 -19 18 -28 20
-35 7 -35 -5 0 -12 8 -15 18 -6 19 -39 23 -53 7 -5 -4 -3 -6 2 -2 6 3 16 -3
23 -14 7 -10 8 -19 3 -19 -6 0 -12 4 -16 10 -3 5 -13 6 -22 3 -11 -4 -14 -3
-9 5 4 7 2 12 -4 12 -7 0 -9 -7 -6 -16 5 -12 2 -15 -10 -10 -14 5 -15 4 -4 -9
7 -8 9 -15 4 -15 -5 0 -2 -5 6 -10 12 -7 10 -9 -7 -7 -17 1 -19 4 -11 14 7 9
7 13 0 13 -6 0 -14 -4 -17 -10 -8 -13 -35 -13 -35 0 0 5 8 7 18 4 16 -5 16 -5
0 9 -10 8 -18 19 -18 25 0 6 -6 13 -12 15 -8 4 -4 8 9 12 13 4 20 11 17 16 -3
5 -13 5 -24 -1 -10 -6 -21 -6 -24 -2 -3 5 0 9 7 9 35 1 57 16 57 38 0 6 -4 5
-8 -2 -6 -9 -11 -6 -21 8 -7 12 -8 18 -3 15 12 -7 33 16 36 41 2 10 -4 24 -13
31 -9 8 2 4 23 -8 29 -16 36 -17 26 -5 -11 14 -10 17 8 22 12 3 22 10 22 15 0
6 -11 3 -24 -6 -18 -11 -27 -13 -32 -4 -4 6 -3 8 3 5 16 -10 31 15 28 46 -2
15 1 25 5 22 5 -3 8 -11 6 -18 -1 -7 -1 -9 1 -4 3 4 9 4 15 1 6 -4 5 2 -1 15
-9 16 -9 21 0 21 8 0 7 5 -2 17 -10 11 -10 14 -1 9 8 -4 12 -1 12 9 0 10 6 15
13 12 17 -6 61 29 47 38 -6 3 -8 11 -5 16 4 5 12 3 19 -4 8 -6 11 -16 8 -21
-3 -5 0 -6 6 -2 7 4 12 2 12 -5 0 -7 3 -10 6 -6 7 7 -36 66 -49 66 -5 1 -6 -3
-2 -8 3 -5 1 -12 -4 -16 -6 -3 -7 -13 -4 -23 5 -14 3 -15 -7 -5 -11 10 -11 15
0 28 15 18 0 20 -20 3 -12 -11 -12 -10 -1 4 7 10 21 20 32 23 11 4 17 11 13
16 -3 5 -11 6 -17 2 -8 -5 -8 -2 0 9 7 8 9 19 5 23 -4 5 -2 5 4 2 7 -4 14 3
18 17 5 20 12 23 50 22 25 0 42 -4 40 -8z m826 -8 c0 -5 -5 -10 -11 -10 -5 0
-7 5 -4 10 3 6 8 10 11 10 2 0 4 -4 4 -10z m321 -47 c13 -16 12 -17 -3 -4 -17
13 -22 21 -14 21 2 0 10 -8 17 -17z m48 -10 c-1 -5 0 -10 1 -13 8 -21 6 -37
-6 -37 -10 0 -11 4 -3 14 9 10 7 14 -6 19 -13 5 -14 9 -3 15 16 11 18 11 17 2z
m-364 -13 c-3 -5 -12 -10 -18 -10 -7 0 -6 4 3 10 19 12 23 12 15 0z m-1132
-15 c-3 -9 -8 -14 -10 -11 -3 3 -2 9 2 15 9 16 15 13 8 -4z m573 -12 c-2 -9
-9 -19 -17 -21 -11 -3 -11 -1 1 7 13 9 12 11 -5 11 -17 0 -17 2 -5 10 22 14
29 12 26 -7z m358 8 c-8 -8 -44 -8 -44 1 0 4 11 7 25 6 13 -1 22 -4 19 -7z
m546 3 c0 -8 -19 -13 -24 -6 -3 5 1 9 9 9 8 0 15 -2 15 -3z m-1300 -58 c0 -11
-19 -15 -25 -6 -3 5 1 10 9 10 9 0 16 -2 16 -4z m751 -19 c-10 -9 -11 -8 -5 6
3 10 9 15 12 12 3 -3 0 -11 -7 -18z m279 14 c3 -1 6 -10 7 -20 1 -13 -3 -18
-12 -15 -8 3 -11 13 -8 22 4 9 3 14 -1 10 -11 -9 -15 -58 -5 -63 4 -3 6 -14 4
-25 -2 -11 2 -20 8 -20 7 0 4 -5 -6 -11 -10 -6 -21 -8 -24 -5 -4 3 0 6 8 6 12
0 12 2 0 9 -12 8 -12 12 -2 24 8 10 9 17 1 22 -5 3 -10 1 -10 -4 0 -6 -5 -11
-11 -11 -8 0 -7 5 2 16 10 13 10 17 -2 25 -10 6 -10 9 -1 9 20 0 14 16 -10 27
-20 9 -17 10 17 8 22 -2 42 -4 45 -4z m-1263 -33 c-7 -10 -16 -18 -21 -18 -4
0 -3 6 3 13 6 8 9 16 6 19 -3 2 1 5 9 5 11 0 12 -4 3 -19z m355 -38 c6 0 8 -3
5 -6 -10 -11 -38 17 -30 30 5 7 9 5 11 -6 2 -10 8 -18 14 -18z m1054 11 c-14
-5 -16 -10 -8 -15 7 -4 18 -4 25 0 9 5 9 4 0 -6 -10 -11 -15 -11 -27 0 -19 15
-12 30 12 29 14 0 14 -2 -2 -8z m214 -7 c0 -2 -7 -4 -15 -4 -8 0 -15 4 -15 10
0 5 7 7 15 4 8 -4 15 -8 15 -10z m-1263 -39 c0 -6 -8 -11 -18 -11 -9 0 -15 5
-12 11 2 7 10 12 17 12 7 0 13 -5 13 -12z m645 -10 c-2 -9 1 -15 6 -11 5 3 9
-2 9 -11 0 -12 -5 -11 -19 7 -21 26 -24 44 -5 37 6 -2 11 -12 9 -22z m428 5
c8 -5 11 -10 5 -10 -5 0 -17 5 -25 10 -8 5 -10 10 -5 10 6 0 17 -5 25 -10z
m-1290 -10 c0 -5 -5 -10 -11 -10 -5 0 -7 5 -4 10 3 6 8 10 11 10 2 0 4 -4 4
-10z m1320 -65 c0 -8 -4 -15 -10 -15 -5 0 -7 7 -4 15 4 8 8 15 10 15 2 0 4 -7
4 -15z m-426 -8 c3 3 6 1 6 -5 0 -16 -12 -15 -36 4 -18 15 -18 15 2 5 12 -6
24 -7 28 -4z m-934 -7 c0 -5 -2 -10 -4 -10 -3 0 -8 5 -11 10 -3 6 -1 10 4 10
6 0 11 -4 11 -10z m1388 -15 c-3 -3 -9 2 -12 12 -6 14 -5 15 5 6 7 -7 10 -15
7 -18z m-1583 -33 c-6 -7 -34 11 -29 19 3 5 11 3 19 -4 7 -6 12 -13 10 -15z
m170 -11 c3 -5 2 -12 -3 -15 -5 -3 -9 1 -9 9 0 17 3 19 12 6z m496 -68 c2 1 3
0 2 -2 -2 -2 2 -10 8 -18 13 -15 13 -15 -18 -18 -24 -2 -31 9 -13 20 6 4 2 19
-11 38 l-21 32 25 -27 c14 -15 27 -26 28 -25z m14 27 c3 -5 -1 -10 -9 -10 -9
0 -16 5 -16 10 0 6 4 10 9 10 6 0 13 -4 16 -10z m-525 -52 c10 -21 10 -21 -3
-6 -8 10 -18 14 -22 10 -5 -4 -5 -1 -1 6 10 17 14 15 26 -10z m184 -3 c13 -13
26 -22 30 -18 4 4 4 -1 0 -11 -5 -14 -9 -15 -15 -4 -5 7 -9 9 -9 4 0 -6 -5 -5
-12 2 -8 8 -15 9 -25 1 -9 -8 -13 -8 -13 -1 0 6 -9 9 -20 7 -11 -2 -20 0 -20
5 0 13 27 19 38 8 16 -16 36 0 21 18 -20 24 1 15 25 -11z m65 22 c-2 -1 -12
-9 -22 -16 -15 -12 -17 -12 -11 3 3 9 13 16 22 16 8 0 13 -1 11 -3z m732 -10
c-6 -8 -8 -17 -4 -20 3 -4 1 -7 -5 -7 -7 0 -12 5 -12 10 0 6 -4 10 -10 10 -5
0 -9 -3 -9 -7 3 -19 -2 -33 -12 -33 -5 0 -7 5 -4 10 3 6 -1 10 -9 10 -17 0
-17 -20 -1 -33 6 -5 1 -6 -10 -2 -40 15 -85 16 -85 3 0 -8 -3 -9 -8 -3 -10 15
-32 17 -32 3 0 -6 -3 -8 -6 -5 -4 4 -1 13 6 22 10 12 16 13 26 4 11 -9 14 -8
14 1 0 8 3 10 6 7 4 -3 15 -2 25 4 15 7 21 6 25 -6 3 -8 10 -15 16 -15 5 0 7
4 3 10 -7 11 52 43 65 35 5 -3 11 -1 15 5 3 5 9 10 12 10 3 0 0 -6 -6 -13z
m-1004 -32 c0 -8 -4 -12 -9 -9 -5 3 -6 10 -3 15 9 13 12 11 12 -6z m1480 -5
c-2 -11 -6 -22 -9 -26 -4 -3 -5 2 -3 13 2 10 4 21 4 26 1 4 3 7 6 7 3 0 4 -9
2 -20z m-717 -4 c0 -8 -4 -17 -9 -21 -6 -3 -9 4 -8 15 1 23 17 28 17 6z m575
4 c3 -5 1 -10 -4 -10 -6 0 -11 5 -11 10 0 6 2 10 4 10 3 0 8 -4 11 -10z m-817
-25 c-3 -3 -9 2 -12 12 -6 14 -5 15 5 6 7 -7 10 -15 7 -18z m-333 5 c-3 -5
-12 -10 -18 -10 -7 0 -6 4 3 10 19 12 23 12 15 0z m-425 -100 c0 -5 -4 -10
-10 -10 -5 0 -10 -5 -10 -11 0 -5 5 -7 12 -3 7 5 8 3 3 -5 -10 -18 -27 2 -19
22 7 18 24 23 24 7z m200 -82 c0 7 4 12 8 12 5 0 9 -6 9 -13 0 -7 -11 -13 -23
-13 -13 0 -21 2 -19 5 3 2 -1 11 -7 20 -8 10 -4 9 10 -3 12 -11 22 -14 22 -8z
m-106 -4 c3 -8 2 -12 -4 -9 -6 3 -10 10 -10 16 0 14 7 11 14 -7z m632 7 c-4
-5 0 -11 6 -14 7 -2 9 -8 5 -13 -9 -10 -28 16 -21 28 3 4 7 8 10 8 3 0 3 -4 0
-9z m402 -1 c7 -7 28 -4 34 4 4 6 10 7 14 3 9 -8 1 -18 -18 -21 -7 -1 -18 -5
-25 -9 -6 -4 -14 -3 -18 3 -4 6 -11 7 -17 4 -7 -4 -8 -2 -4 4 8 13 -6 17 -18
5 -11 -11 -43 -10 -43 2 0 9 86 14 95 5z m159 -5 c0 -8 -4 -12 -9 -9 -5 3 -6
10 -3 15 9 13 12 11 12 -6z"/>
<path d="M1287 1444 c-3 -3 -3 -13 0 -22 5 -11 2 -14 -10 -9 -24 9 -41 -17
-22 -33 14 -12 14 -15 0 -30 -12 -14 -13 -19 -2 -35 8 -10 20 -15 28 -12 10 4
9 6 -4 6 -10 1 -15 6 -12 11 4 6 11 8 16 5 5 -4 9 -1 9 5 0 7 -8 9 -22 4 -20
-6 -21 -5 -9 10 8 9 16 14 19 11 3 -3 11 0 19 7 10 8 17 8 25 0 9 -9 7 -12 -7
-12 -19 -1 -19 -1 -2 -11 9 -6 15 -14 12 -20 -4 -5 -1 -9 5 -9 7 0 9 8 4 22
-6 21 -6 22 12 8 18 -14 18 -14 4 5 -8 10 -26 29 -40 42 -14 12 -20 23 -14 23
6 0 17 -7 24 -15 7 -8 16 -15 20 -15 13 0 7 29 -7 34 -8 4 -11 11 -7 18 4 7 4
10 -1 6 -4 -4 -13 -3 -20 2 -7 5 -14 7 -18 4z m28 -24 c10 -11 16 -20 13 -20
-3 0 -13 9 -23 20 -10 11 -16 20 -13 20 3 0 13 -9 23 -20z m-15 -39 c0 -4 -3
-11 -7 -14 -9 -9 -44 23 -37 34 6 10 44 -7 44 -20z"/>
<path d="M1267 1389 c7 -7 15 -10 18 -7 3 3 -2 9 -12 12 -14 6 -15 5 -6 -5z"/>
<path d="M1338 1291 c8 -4 13 -11 13 -15 -3 -20 1 -26 16 -26 15 0 14 2 -3 15
-18 14 -18 15 0 8 13 -4 17 -2 14 7 -2 7 -15 15 -29 17 -16 2 -20 0 -11 -6z"/>
<path d="M1310 1280 c0 -5 5 -10 11 -10 5 0 7 5 4 10 -3 6 -8 10 -11 10 -2 0
-4 -4 -4 -10z"/>
<path d="M1254 1255 c-4 -8 -11 -12 -17 -8 -6 3 -7 1 -3 -5 10 -16 14 -15 26
8 6 11 8 20 5 20 -3 0 -8 -7 -11 -15z"/>
<path d="M1207 1216 c-14 -11 -15 -15 -4 -25 11 -8 18 -6 32 9 18 20 18 21 0
14 -13 -5 -16 -4 -11 4 9 15 5 15 -17 -2z"/>
<path d="M1265 1220 c-3 -6 1 -7 9 -4 18 7 21 14 7 14 -6 0 -13 -4 -16 -10z"/>
<path d="M1187 1144 c-16 -21 -15 -23 9 -39 24 -16 25 -16 16 2 -15 27 -13 37
11 50 21 11 21 12 1 10 -11 0 -28 -11 -37 -23z"/>
<path d="M1395 1120 c-3 -5 -1 -10 4 -10 6 0 11 5 11 10 0 6 -2 10 -4 10 -3 0
-8 -4 -11 -10z"/>
<path d="M1173 1064 c3 -4 2 -14 -2 -23 -6 -11 -4 -23 6 -36 11 -14 14 -15 10
-4 -3 9 0 22 6 29 9 10 9 11 0 6 -7 -4 -13 -2 -13 3 0 6 5 11 11 11 5 0 7 5 4
10 -3 6 -11 10 -17 10 -6 0 -8 -3 -5 -6z"/>
<path d="M1111 776 c-7 -9 -10 -16 -6 -16 4 0 1 -7 -6 -16 -11 -14 -10 -18 6
-30 10 -8 23 -14 29 -14 5 0 1 7 -10 15 -19 14 -19 14 1 15 15 1 17 3 5 8 -17
8 -25 32 -11 32 5 0 11 -5 13 -12 3 -7 7 -5 11 6 4 9 3 15 -2 11 -5 -3 -11 0
-13 6 -2 7 -9 5 -17 -5z"/>
<path d="M1473 620 c0 -23 3 -28 9 -16 5 9 5 23 0 32 -6 12 -9 7 -9 -16z"/>
<path d="M1110 600 c0 -5 5 -10 10 -10 6 0 10 5 10 10 0 6 -4 10 -10 10 -5 0
-10 -4 -10 -10z"/>
<path d="M1455 500 c-3 -5 -1 -10 4 -10 6 0 11 5 11 10 0 6 -2 10 -4 10 -3 0
-8 -4 -11 -10z"/>
<path d="M1471 467 c-13 -21 -12 -21 5 -5 10 10 16 20 13 22 -3 3 -11 -5 -18
-17z"/>
<path d="M1115 460 c-7 -12 2 -30 16 -30 5 0 9 5 9 11 0 5 -5 7 -12 3 -8 -5
-9 -2 -5 9 7 19 2 23 -8 7z"/>
<path d="M1227 459 c7 -7 15 -10 18 -7 3 3 -2 9 -12 12 -14 6 -15 5 -6 -5z"/>
<path d="M1266 425 c-10 -7 -16 -18 -15 -23 2 -6 12 1 22 14 21 27 19 29 -7 9z"/>
<path d="M1179 428 c0 -2 -2 -13 -3 -25 -2 -18 0 -20 10 -12 7 6 19 7 25 3 8
-4 9 -3 5 4 -4 7 -3 12 3 12 5 0 12 -6 14 -12 4 -10 6 -10 6 -1 1 7 -9 17 -20
24 -15 8 -19 8 -15 0 4 -6 0 -11 -9 -11 -9 0 -13 5 -10 10 3 6 4 10 1 10 -3 0
-6 -1 -7 -2z"/>
<path d="M887 1133 c-4 -3 -7 -11 -7 -17 0 -6 5 -5 12 2 6 6 9 14 7 17 -3 3
-9 2 -12 -2z"/>
<path d="M861 1036 c-10 -12 -8 -13 8 -9 12 3 18 9 15 14 -7 12 -10 11 -23 -5z"/>
<path d="M865 1012 c-15 -10 -13 -29 5 -44 8 -7 11 -9 7 -4 -4 5 -2 15 5 23
13 16 -1 36 -17 25z m6 -25 c-10 -9 -11 -8 -5 6 3 10 9 15 12 12 3 -3 0 -11
-7 -18z"/>
<path d="M1712 1078 c-5 -7 -9 -25 -7 -40 2 -16 -2 -28 -8 -28 -13 -1 21 -23
39 -26 7 -1 10 5 9 15 -2 9 -4 16 -5 16 -2 0 -9 37 -12 63 -1 6 -2 12 -3 12
-2 0 -7 -6 -13 -12z m14 -43 c-2 -7 1 -18 7 -24 10 -10 6 -14 -10 -8 -4 1 -8
14 -8 29 0 15 3 24 8 21 5 -3 6 -11 3 -18z"/>
<path d="M1705 911 c-3 -5 -2 -12 3 -15 5 -3 9 1 9 9 0 17 -3 19 -12 6z"/>
<path d="M1803 875 c-10 -10 -9 -14 3 -19 8 -3 13 -2 9 3 -3 5 0 11 7 13 7 3
8 7 3 10 -6 3 -15 0 -22 -7z"/>
<path d="M1786 835 c4 -8 8 -15 10 -15 2 0 4 7 4 15 0 8 -4 15 -10 15 -5 0 -7
-7 -4 -15z"/>
<path d="M1770 805 c0 -8 29 -12 39 -5 9 5 4 8 -13 8 -14 0 -26 -2 -26 -3z"/>
<path d="M1850 801 c0 -7 -4 -9 -10 -6 -6 3 -7 -1 -3 -10 4 -12 8 -13 13 -5 5
8 10 9 14 2 4 -6 -1 -15 -10 -20 -14 -8 -12 -9 9 -9 32 0 33 2 7 34 -11 14
-20 20 -20 14z"/>
<path d="M1817 769 c4 -13 8 -18 11 -10 2 7 -1 18 -6 23 -8 8 -9 4 -5 -13z"/>
<path d="M1785 720 c-3 -6 1 -7 9 -4 18 7 21 14 7 14 -6 0 -13 -4 -16 -10z"/>
<path d="M1797 670 c-10 -12 -9 -13 3 -4 8 6 32 10 53 9 20 -1 37 2 37 5 0 14
-82 5 -93 -10z"/>
<path d="M1790 620 c0 -5 5 -10 10 -10 6 0 10 5 10 10 0 6 -4 10 -10 10 -5 0
-10 -4 -10 -10z"/>
<path d="M1826 622 c-3 -5 1 -9 9 -9 8 0 12 4 9 9 -3 4 -7 8 -9 8 -2 0 -6 -4
-9 -8z"/>
<path d="M1904 602 c23 -26 23 -26 23 -7 0 8 -3 13 -5 10 -3 -3 -12 1 -21 7
-10 8 -9 4 3 -10z"/>
<path d="M1910 566 c0 -2 7 -7 16 -10 8 -3 12 -2 9 4 -6 10 -25 14 -25 6z"/>
<path d="M1830 540 c0 -5 5 -10 11 -10 5 0 7 5 4 10 -3 6 -8 10 -11 10 -2 0
-4 -4 -4 -10z"/>
<path d="M1946 503 c-6 -14 -5 -15 5 -6 7 7 10 15 7 18 -3 3 -9 -2 -12 -12z"/>
<path d="M1870 501 c0 -5 7 -15 16 -22 15 -12 14 -14 -7 -20 -23 -7 -23 -7 -2
-8 28 -1 37 13 18 29 -8 7 -12 16 -9 21 3 5 0 9 -5 9 -6 0 -11 -4 -11 -9z"/>
<path d="M1910 501 c0 -6 4 -13 10 -16 6 -3 7 1 4 9 -7 18 -14 21 -14 7z"/>
<path d="M1993 455 c0 -8 4 -12 9 -9 5 3 6 10 3 15 -9 13 -12 11 -12 -6z"/>
<path d="M785 930 c-3 -5 -2 -16 1 -25 4 -8 3 -15 -2 -13 -13 4 -13 -14 0 -39
8 -16 15 -20 26 -13 13 8 12 10 -2 10 -23 0 -23 14 -1 31 15 12 16 12 10 -3
-4 -10 -2 -18 4 -18 7 0 9 11 5 28 -6 26 -6 26 10 7 12 -14 15 -15 11 -4 -3 9
0 23 6 30 8 8 5 8 -7 -1 -17 -13 -19 -13 -14 0 4 11 -2 15 -18 16 -13 1 -26
-2 -29 -6z m25 -30 c-13 -25 -27 -33 -35 -20 -4 6 -1 9 7 8 7 -2 14 4 14 12 3
29 4 31 14 25 7 -4 7 -12 0 -25z"/>
<path d="M822 834 c-17 -18 -15 -29 2 -15 9 7 17 8 20 3 3 -6 -2 -13 -12 -17
-16 -6 -16 -7 0 -19 10 -7 16 -16 13 -19 -3 -4 -3 -6 -1 -4 2 1 5 7 6 12 1 6
9 19 18 29 9 11 12 16 5 13 -6 -4 -18 1 -25 12 -11 15 -15 16 -26 5z m33 -34
c-3 -5 -12 -10 -18 -10 -7 0 -6 4 3 10 19 12 23 12 15 0z"/>
<path d="M777 769 c7 -7 15 -10 18 -7 3 3 -2 9 -12 12 -14 6 -15 5 -6 -5z"/>
<path d="M745 760 c-3 -5 -1 -10 4 -10 6 0 11 5 11 10 0 6 -2 10 -4 10 -3 0
-8 -4 -11 -10z"/>
<path d="M810 760 c0 -5 5 -10 10 -10 6 0 10 5 10 10 0 6 -4 10 -10 10 -5 0
-10 -4 -10 -10z"/>
<path d="M708 743 c-9 -17 -3 -46 10 -49 7 -1 8 0 2 3 -14 7 -12 23 3 21 15
-4 16 24 0 29 -6 2 -13 0 -15 -4z m22 -13 c0 -5 -2 -10 -4 -10 -3 0 -8 5 -11
10 -3 6 -1 10 4 10 6 0 11 -4 11 -10z"/>
<path d="M735 649 c-4 -6 -5 -12 -2 -15 2 -3 7 2 10 11 7 17 1 20 -8 4z"/>
<path d="M750 636 c0 -2 8 -10 18 -17 15 -13 16 -12 3 4 -13 16 -21 21 -21 13z"/>
<path d="M700 626 c0 -2 8 -10 18 -17 15 -13 16 -12 3 4 -13 16 -21 21 -21 13z"/>
<path d="M799 611 c12 -8 12 -12 2 -25 -8 -9 -9 -16 -5 -16 5 0 15 9 21 19 10
16 9 20 -3 25 -23 9 -31 7 -15 -3z"/>
<path d="M686 602 c-3 -5 1 -9 9 -9 8 0 12 4 9 9 -3 4 -7 8 -9 8 -2 0 -6 -4
-9 -8z"/>
<path d="M633 585 c0 -8 4 -12 8 -9 4 2 10 -2 12 -8 4 -8 6 -9 6 -2 1 6 -5 17
-12 23 -10 8 -14 7 -14 -4z"/>
<path d="M613 549 c-9 -11 -6 -14 13 -15 13 -1 24 2 24 8 0 5 -4 7 -9 4 -5 -4
-11 -1 -13 5 -3 8 -7 7 -15 -2z"/>
<path d="M654 518 c-4 -5 -3 -12 0 -15 3 -4 6 -1 6 6 0 7 5 9 10 6 6 -4 8 -10
6 -14 -3 -4 1 -8 9 -8 10 0 12 4 5 12 -5 7 -8 14 -5 17 3 2 -2 5 -10 5 -9 0
-18 -4 -21 -9z"/>
<path d="M741 514 c0 -11 3 -14 6 -6 3 7 2 16 -1 19 -3 4 -6 -2 -5 -13z"/>
<path d="M620 480 c-7 -16 -17 -27 -22 -24 -6 4 -5 -3 1 -14 16 -31 31 -36 31
-12 0 14 4 19 13 14 10 -6 10 -4 0 7 -7 7 -13 20 -13 29 1 12 4 11 15 -4 8
-11 15 -16 15 -10 0 5 -7 17 -14 27 -12 16 -14 15 -26 -13z m3 -35 c-3 -9 -8
-14 -10 -11 -3 3 -2 9 2 15 9 16 15 13 8 -4z"/>
<path d="M1070 430 c0 -5 5 -10 11 -10 5 0 7 5 4 10 -3 6 -8 10 -11 10 -2 0
-4 -4 -4 -10z"/>
<path d="M1474 2223 c4 -7 3 -13 -1 -13 -5 0 -14 -10 -22 -22 -13 -21 -13 -22
2 -10 9 8 20 11 25 8 11 -7 9 31 -3 41 -4 5 -5 2 -1 -4z"/>
<path d="M1100 2160 c18 -12 30 -13 30 -2 0 4 -10 9 -22 9 -18 2 -20 0 -8 -7z"/>
<path d="M1506 2137 c3 -10 9 -15 12 -12 3 3 0 11 -7 18 -10 9 -11 8 -5 -6z"/>
<path d="M1024 2102 c4 -3 14 -7 22 -8 9 -1 13 0 10 4 -4 3 -14 7 -22 8 -9 1
-13 0 -10 -4z"/>
<path d="M1513 2050 c9 -14 16 -29 16 -35 0 -5 4 -11 10 -13 15 -5 14 11 -1
27 -10 11 -10 14 0 18 6 3 12 9 12 15 0 7 -4 7 -13 -1 -10 -8 -17 -7 -27 2 -7
7 -6 1 3 -13z"/>
<path d="M1560 2040 c-8 -5 -10 -10 -5 -10 6 0 17 5 25 10 8 5 11 10 5 10 -5
0 -17 -5 -25 -10z"/>
<path d="M1016 1991 c-4 -5 3 -7 14 -4 23 6 26 13 6 13 -8 0 -17 -4 -20 -9z"/>
<path d="M1556 1983 c-6 -14 -5 -15 5 -6 7 7 10 15 7 18 -3 3 -9 -2 -12 -12z"/>
<path d="M1005 1959 c-4 -6 -5 -12 -2 -15 2 -3 7 2 10 11 7 17 1 20 -8 4z"/>
<path d="M975 1940 c-3 -5 -1 -10 4 -10 6 0 11 5 11 10 0 6 -2 10 -4 10 -3 0
-8 -4 -11 -10z"/>
<path d="M909 1783 c-13 -16 -12 -17 4 -4 9 7 17 15 17 17 0 8 -8 3 -21 -13z"/>
<path d="M1670 1780 c0 -5 5 -10 11 -10 5 0 7 5 4 10 -3 6 -8 10 -11 10 -2 0
-4 -4 -4 -10z"/>
<path d="M1696 1733 c-4 -9 -3 -20 1 -24 4 -4 9 3 9 17 2 28 -1 31 -10 7z"/>
<path d="M1674 1693 c2 -11 13 -17 34 -18 17 -1 29 3 25 7 -3 5 -8 7 -11 4 -3
-4 -15 1 -28 9 -20 13 -22 13 -20 -2z"/>
<path d="M854 1638 c-4 -7 -3 -8 4 -4 8 5 11 0 9 -15 -2 -13 -12 -26 -23 -30
-18 -7 -13 -11 19 -13 6 -1 12 4 12 9 0 6 4 15 8 22 8 13 -1 43 -13 43 -5 0
-12 -5 -16 -12z"/>
<path d="M1730 1631 c0 -6 4 -13 10 -16 6 -3 7 1 4 9 -7 18 -14 21 -14 7z"/>
<path d="M800 1600 c-9 -6 -10 -10 -3 -10 6 0 15 5 18 10 8 12 4 12 -15 0z"/>
<path d="M1755 1599 c-8 -12 0 -22 20 -25 8 -1 13 2 9 7 -3 5 -10 6 -16 3 -7
-5 -9 -1 -5 9 7 19 2 23 -8 6z"/>
<path d="M820 1521 c7 -14 7 -21 0 -21 -14 0 -13 -27 2 -36 7 -5 8 -3 4 5 -5
7 -1 20 9 31 16 17 15 19 -5 30 -20 11 -21 10 -10 -9z"/>
<path d="M793 1515 c0 -8 4 -12 9 -9 5 3 6 10 3 15 -9 13 -12 11 -12 -6z"/>
<path d="M750 1466 c0 -2 7 -7 16 -10 8 -3 12 -2 9 4 -6 10 -25 14 -25 6z"/>
<path d="M1797 1459 c-17 -10 -16 -12 3 -40 12 -16 19 -33 15 -38 -3 -5 -1
-12 5 -16 6 -4 8 -10 6 -14 -3 -3 4 -7 15 -7 19 0 19 1 3 13 -10 7 -12 13 -6
13 7 0 12 5 12 11 0 5 -4 7 -10 4 -9 -6 -14 8 -11 28 1 5 -3 6 -8 3 -14 -9
-20 16 -9 37 10 20 9 20 -15 6z"/>
<path d="M730 1311 c-8 -6 -17 -8 -21 -5 -4 2 -11 -1 -15 -7 -4 -8 -3 -9 4 -5
7 4 12 2 12 -3 0 -18 19 -12 30 9 12 22 11 24 -10 11z"/>
<path d="M1860 1282 c0 -5 7 -9 15 -9 8 0 15 4 15 9 0 4 -7 8 -15 8 -8 0 -15
-4 -15 -8z"/>
<path d="M691 1252 c-1 -8 -6 -10 -13 -6 -10 5 -10 4 -1 -6 15 -16 28 -8 20
12 -4 11 -6 11 -6 0z"/>
<path d="M1950 1150 c6 -11 13 -20 16 -20 2 0 0 9 -6 20 -6 11 -13 20 -16 20
-2 0 0 -9 6 -20z"/>
<path d="M1996 1113 c-6 -14 -5 -15 5 -6 7 7 10 15 7 18 -3 3 -9 -2 -12 -12z"/>
<path d="M1985 1079 c-3 -4 2 -6 10 -5 21 3 28 13 10 13 -9 0 -18 -4 -20 -8z"/>
<path d="M553 985 c0 -8 4 -15 9 -15 4 0 8 4 8 9 0 6 -4 12 -8 15 -5 3 -9 -1
-9 -9z"/>
<path d="M1998 981 c8 -4 13 -11 13 -15 -1 -3 1 -6 4 -6 3 0 5 2 5 5 0 3 0 10
0 15 0 6 -8 10 -17 10 -14 0 -15 -2 -5 -9z"/>
<path d="M536 943 c-6 -14 -5 -15 5 -6 7 7 10 15 7 18 -3 3 -9 -2 -12 -12z"/>
<path d="M562 945 c4 -4 0 -13 -9 -20 -11 -8 -12 -14 -5 -19 6 -3 16 2 22 13
7 15 7 22 -2 27 -7 4 -10 4 -6 -1z"/>
<path d="M2050 946 c0 -2 7 -7 16 -10 8 -3 12 -2 9 4 -6 10 -25 14 -25 6z"/>
<path d="M2040 926 c0 -2 8 -10 18 -17 15 -13 16 -12 3 4 -13 16 -21 21 -21
13z"/>
<path d="M513 892 c-1 -22 0 -24 9 -8 6 10 6 22 2 26 -5 5 -10 -3 -11 -18z"/>
<path d="M469 863 c-13 -16 -12 -17 4 -4 9 7 17 15 17 17 0 8 -8 3 -21 -13z"/>
<path d="M480 810 c-6 -11 -8 -20 -6 -20 3 0 10 9 16 20 6 11 8 20 6 20 -3 0
-10 -9 -16 -20z"/>
<path d="M2100 798 c0 -4 7 -8 15 -8 8 0 15 4 15 8 0 5 -7 9 -15 9 -8 0 -15
-4 -15 -9z"/>
<path d="M2170 700 c0 -5 5 -10 11 -10 5 0 7 5 4 10 -3 6 -8 10 -11 10 -2 0
-4 -4 -4 -10z"/>
<path d="M2155 631 c-6 -11 23 -36 32 -27 3 3 0 6 -8 6 -11 0 -12 2 -1 9 11 7
11 9 -2 14 -8 3 -18 2 -21 -2z"/>
<path d="M393 611 c-16 -26 10 -37 29 -13 12 16 11 16 -6 2 -18 -14 -18 -13
-12 8 9 27 5 28 -11 3z"/>
<path d="M2200 600 c0 -5 -8 -10 -17 -11 -14 0 -15 -2 -3 -6 8 -3 18 -10 21
-16 4 -5 7 3 7 17 0 14 -2 26 -4 26 -2 0 -4 -4 -4 -10z"/>
<path d="M339 498 c-5 -19 -8 -50 -4 -46 7 7 15 48 9 48 -2 0 -4 -1 -5 -2z"/>
<path d="M316 383 c-4 -4 -15 -8 -23 -8 -9 0 -17 -8 -19 -18 -1 -9 2 -15 7
-11 5 3 6 10 3 16 -5 7 -1 9 9 5 8 -3 21 1 27 9 13 14 9 20 -4 7z"/>
<path d="M2306 358 c3 -5 10 -6 15 -3 13 9 11 12 -6 12 -8 0 -12 -4 -9 -9z"/>
<path d="M2295 281 c3 -5 1 -12 -5 -16 -6 -4 -8 -11 -4 -16 3 -5 10 -7 15 -3
5 3 7 10 4 15 -4 5 -1 9 5 9 6 0 8 5 5 10 -3 6 -11 10 -16 10 -6 0 -8 -4 -4
-9z"/>
<path d="M2310 230 c0 -5 5 -10 11 -10 5 0 7 5 4 10 -3 6 -8 10 -11 10 -2 0
-4 -4 -4 -10z"/>
<path d="M2272 214 c-12 -8 -22 -12 -22 -8 0 3 -6 1 -13 -5 -8 -6 -16 -8 -20
-5 -3 3 -11 -4 -17 -16 -6 -12 -9 -24 -7 -27 3 -2 8 5 12 16 4 13 13 18 25 16
11 -2 26 3 34 11 8 8 19 14 25 14 6 0 11 5 11 10 0 13 -2 13 -28 -6z"/>
<path d="M310 210 c0 -6 4 -9 9 -6 5 4 12 1 14 -4 3 -6 4 -5 3 2 -3 15 -26 23
-26 8z"/>
<path d="M637 190 c10 -10 9 -16 -3 -25 -13 -9 -13 -11 5 -11 11 0 17 4 15 8
-5 8 10 12 34 9 6 -1 12 3 12 8 0 5 -10 8 -22 6 -12 -3 -29 1 -37 7 -13 10
-14 10 -4 -2z"/>
<path d="M1180 181 c-14 -27 -13 -34 4 -19 8 7 12 16 9 21 -2 4 1 7 6 7 11 0
15 -13 12 -35 -1 -5 5 -2 12 8 20 24 30 21 17 -5 -10 -22 -10 -22 4 -4 15 18
42 13 30 -6 -5 -7 -2 -8 6 -3 10 6 8 13 -10 27 -13 10 -29 17 -36 14 -7 -3
-16 -1 -19 4 -10 16 -23 12 -35 -9z"/>
<path d="M2146 192 c-3 -6 3 -12 14 -15 11 -3 23 0 27 6 3 7 3 9 -2 5 -4 -4
-14 -3 -21 3 -7 6 -15 6 -18 1z"/>
<path d="M313 175 c0 -8 4 -12 9 -9 5 3 6 10 3 15 -9 13 -12 11 -12 -6z"/>
<path d="M585 180 c-3 -5 -1 -10 4 -10 6 0 11 5 11 10 0 6 -2 10 -4 10 -3 0
-8 -4 -11 -10z"/>
<path d="M802 183 c-19 -7 -34 -41 -22 -48 6 -4 10 -3 9 2 -5 30 2 35 23 17
17 -14 20 -15 9 -2 -7 9 -10 22 -6 28 7 11 6 11 -13 3z"/>
<path d="M1776 182 c-2 -4 -1 -14 3 -21 6 -10 10 -9 14 3 6 16 -8 32 -17 18z"/>
<path d="M1940 184 c0 -1 12 -10 28 -20 19 -13 24 -13 15 -2 -7 8 -11 17 -8
19 2 3 -5 5 -15 5 -11 0 -20 -1 -20 -2z"/>
<path d="M2016 175 c-3 -8 0 -17 6 -21 6 -4 8 -3 4 4 -3 5 -1 12 6 14 8 3 9 6
1 11 -6 4 -13 0 -17 -8z"/>
<path d="M830 171 c0 -6 4 -13 10 -16 6 -3 7 1 4 9 -7 18 -14 21 -14 7z"/>
<path d="M539 168 c-6 -21 -5 -37 2 -32 5 3 6 10 3 16 -5 7 -1 9 9 5 10 -3 17
-2 17 3 0 8 -28 15 -31 8z"/>
<path d="M1009 157 c6 -8 7 -18 3 -22 -4 -5 -1 -5 6 -1 10 6 10 11 1 22 -6 8
-14 14 -16 14 -3 0 0 -6 6 -13z"/>
<path d="M1550 166 c0 -2 7 -6 15 -10 8 -3 15 -1 15 4 0 6 -7 10 -15 10 -8 0
-15 -2 -15 -4z"/>
<path d="M2220 166 c0 -2 7 -7 16 -10 8 -3 12 -2 9 4 -6 10 -25 14 -25 6z"/>
<path d="M1913 145 c0 -8 4 -12 9 -9 5 3 6 10 3 15 -9 13 -12 11 -12 -6z"/>
</g>
</svg>
